<?xml version="1.0" standalone="no"?>
<!DOCTYPE svg PUBLIC "-//W3C//DTD SVG 1.1//EN" "http://www.w3.org/Graphics/SVG/1.1/DTD/svg11.dtd" >
<svg xmlns="http://www.w3.org/2000/svg" xmlns:xlink="http://www.w3.org/1999/xlink" version="1.1">
<metadata></metadata>
<defs>
<font id="venera900" horiz-adv-x="2101" >
<font-face units-per-em="2048" ascent="1536" descent="-512" />
<missing-glyph horiz-adv-x="614" />
<glyph horiz-adv-x="0" />
<glyph horiz-adv-x="682" />
<glyph unicode=" "  horiz-adv-x="614" />
<glyph unicode="&#x09;" horiz-adv-x="614" />
<glyph unicode="&#xa0;" horiz-adv-x="614" />
<glyph unicode="!" horiz-adv-x="634" d="M158 0v281h319v-281h-319zM170 1401h295l-31 -975h-233z" />
<glyph unicode="&#x22;" horiz-adv-x="1062" d="M154 807v594h280v-594h-280zM629 807v594h280v-594h-280z" />
<glyph unicode="#" horiz-adv-x="1609" d="M94 317v224h252l55 293h-211v223h254l48 250h223l-47 -250h409l47 250h224l-48 -250h213v-223h-253l-56 -293h215v-224h-256l-47 -251h-223l47 251h-412l-47 -251h-223l47 251h-211zM569 541h412l55 293h-411z" />
<glyph unicode="$" horiz-adv-x="1957" d="M104 0v254h1248q129 0 183 34.5t54 100.5q0 75 -69 113.5t-226 50.5l-682 53q-501 40 -501 400q0 105 42.5 183t118 123.5t169 67t206.5 21.5h256v233h240v-233h649v-252h-1169q-113 0 -169.5 -32t-56.5 -105q0 -68 60.5 -100.5t232.5 -45.5l651 -51q123 -10 217.5 -36 t169.5 -73.5t114.5 -124.5t39.5 -182q0 -185 -131.5 -292t-413.5 -107h-290v-299h-240v299h-703z" />
<glyph unicode="%" horiz-adv-x="2232" d="M74 1051q0 59 12.5 111t44 100.5t79 83t122.5 55t170 20.5t170 -20.5t122.5 -55t79 -83t44 -100.5t12.5 -111q0 -75 -21.5 -138t-68.5 -117t-133.5 -85t-204.5 -31t-204.5 31t-133.5 85t-68.5 117t-21.5 138zM299 0l1335 1401h301l-1335 -1401h-301zM309 1051 q0 -91 44 -139t149 -48t148.5 48t43.5 139t-43.5 138.5t-148.5 47.5t-149 -47.5t-44 -138.5zM1303 348q0 75 21.5 138t68.5 117t133.5 85t204.5 31t204.5 -31t133.5 -85t68.5 -117t21.5 -138t-21.5 -138t-68.5 -117t-133.5 -85t-204.5 -31t-204.5 31t-133.5 85t-68.5 117 t-21.5 138zM1538 348q0 -91 44 -138.5t149 -47.5t148.5 47.5t43.5 138.5t-43.5 139t-148.5 48t-149 -48t-44 -139z" />
<glyph unicode="&#x26;" horiz-adv-x="2017" d="M113 379q0 257 276 336q-239 75 -239 315q0 28 3 53.5t15.5 65t33.5 71.5t62 67t96 59t139.5 39.5t188.5 15.5h977v-252h-999q-107 0 -161 -44t-54 -116t55.5 -111.5t159.5 -39.5h1280v-244h-191v-195q0 -86 -28 -156t-86.5 -125.5t-160 -86.5t-237.5 -31h-584 q-278 0 -412 102t-134 277zM418 418q0 -68 54.5 -117t172.5 -49h608q118 0 173 49t55 117v176h-836q-61 0 -107.5 -16t-71 -43t-36.5 -56.5t-12 -60.5z" />
<glyph unicode="'" horiz-adv-x="587" d="M154 807v594h280v-594h-280z" />
<glyph unicode="(" horiz-adv-x="665" d="M109 680q0 235 54.5 469.5t155.5 425.5h267q-102 -191 -156.5 -426t-54.5 -469t54.5 -469t156.5 -426h-267q-101 191 -155.5 425.5t-54.5 469.5z" />
<glyph unicode=")" horiz-adv-x="665" d="M80 -215q102 191 156.5 426t54.5 469t-54.5 469t-156.5 426h266q102 -191 156.5 -426t54.5 -469t-54.5 -469t-156.5 -426h-266z" />
<glyph unicode="*" horiz-adv-x="1093" d="M88 1067l64 195l321 -150l-37 -115zM201 721l241 260l97 -70l-174 -311zM444 1475h205l-43 -355h-119zM555 911l96 70l244 -260l-166 -121zM621 1112l323 150l62 -195l-349 -70z" />
<glyph unicode="+" horiz-adv-x="1447" d="M90 596v227h520v418h228v-418h520v-227h-520v-418h-228v418h-520z" />
<glyph unicode="," horiz-adv-x="661" d="M66 -231l139 553h319l-219 -553h-239z" />
<glyph unicode="-" horiz-adv-x="1073" d="M154 582v256h766v-256h-766z" />
<glyph unicode="." horiz-adv-x="626" d="M154 0v322h319v-322h-319z" />
<glyph unicode="/" horiz-adv-x="1167" d="M53 -215l801 1790h260l-801 -1790h-260z" />
<glyph unicode="0" d="M109 700q0 196 55.5 333t173.5 223.5t292.5 125.5t420.5 39t420.5 -39t292.5 -125.5t173.5 -223.5t55.5 -333t-55.5 -333t-173.5 -223t-292 -125t-421 -39t-421 39t-292 125t-173.5 223t-55.5 333zM408 700q0 -112 24 -189t69.5 -127.5t126 -78.5t179 -38.5t244.5 -10.5 t244.5 10.5t179 38.5t126 78.5t69.5 127.5t24 189q0 93 -15 161.5t-50 118.5t-83.5 81.5t-124.5 50.5t-162.5 26t-207.5 7t-207.5 -7t-162.5 -26t-124.5 -50.5t-83.5 -81.5t-50 -118.5t-15 -161.5z" />
<glyph unicode="1" horiz-adv-x="899" d="M53 1145v256h672v-1401h-293v1145h-379z" />
<glyph unicode="2" horiz-adv-x="1886" d="M104 0v256q0 70 30.5 130.5t68.5 103.5t119 84.5t135.5 65t166.5 53.5t163 41.5t171 36.5q5 1 8 1.5t7.5 1.5t7.5 2q62 13 96 20.5t86 20.5t81.5 23t67.5 24t59 29t41.5 33.5t29 40.5t8.5 47q0 50 -39 85.5t-133 35.5h-1124v266h1120q221 0 355 -100.5t134 -276.5 q0 -65 -20.5 -121.5t-54 -100t-86.5 -81.5t-108 -65t-128 -52.5t-137.5 -42.5t-145.5 -35q-45 -10 -107 -23t-105.5 -22t-98 -21t-92.5 -22.5t-79 -23.5t-68 -27t-50 -30.5t-34 -36t-11 -41.5v-17h1327v-262h-1661z" />
<glyph unicode="3" horiz-adv-x="1855" d="M129 0v264h1098q120 0 173.5 43t53.5 111q0 71 -54 119.5t-173 48.5h-1057v262h1036q215 0 215 141q0 148 -215 148h-1067v264h1028q104 0 189 -15.5t139.5 -39.5t95.5 -58.5t62.5 -67t34 -71.5t15.5 -65t3 -54q0 -239 -240 -315q277 -79 277 -336q0 -175 -134.5 -277 t-412.5 -102h-1067z" />
<glyph unicode="4" horiz-adv-x="2039" d="M70 770q0 57 22 131l152 500h303l-152 -512q-16 -53 -16 -101q0 -21 5 -37t20.5 -35.5t53 -30.5t93.5 -11h876v727h293v-725h246v-264h-246v-412h-293v403h-905q-113 0 -198 26.5t-132 65t-76 91.5t-37.5 96t-8.5 88z" />
<glyph unicode="5" horiz-adv-x="1898" d="M119 0v268h1159q122 0 174.5 44.5t52.5 111.5t-52.5 111.5t-174.5 44.5h-1051l-84 90l58 731h1507v-271h-1247l-19 -294h828q141 0 247 -31t169 -88t93.5 -130t30.5 -163q0 -91 -31 -166t-94.5 -134t-171 -91.5t-249.5 -32.5h-1145z" />
<glyph unicode="6" horiz-adv-x="2004" d="M152 418v565q0 93 28.5 167t89 131.5t164 88.5t244.5 31h1094v-262h-1108q-62 0 -104.5 -13t-64 -36.5t-30 -49t-8.5 -57.5v-147h932q276 0 406 -113t130 -305t-130 -305t-406 -113h-711q-141 0 -244.5 31t-164 88.5t-89 131.5t-28.5 167zM457 418q0 -164 207 -164h739 q118 0 167.5 47.5t49.5 116.5q0 32 -10 59.5t-33.5 52.5t-67.5 39.5t-106 14.5h-946v-166z" />
<glyph unicode="7" horiz-adv-x="1761" d="M53 1145v256h1649v-230q0 -91 -27 -169.5t-72.5 -136t-104.5 -108t-124.5 -90.5t-130.5 -77t-124 -75t-104.5 -78t-72.5 -91.5t-27 -109.5v-236h-319v236q0 101 43 189t112 151t152 119t166 105t152 97t112 106.5t43 122.5v19h-1323z" />
<glyph unicode="8" horiz-adv-x="1941" d="M113 379q0 257 276 336q-239 75 -239 315q0 28 3 53.5t15.5 65t33.5 71.5t62 67t96 59t139.5 39.5t188.5 15.5h565q104 0 189 -15.5t139.5 -39.5t95.5 -58.5t62.5 -67t34 -71.5t15.5 -65t3 -54q0 -239 -240 -315q277 -79 277 -336q0 -175 -134.5 -277t-412.5 -102h-623 q-278 0 -412 102t-134 277zM408 418q0 -68 54.5 -117t172.5 -49h672q118 0 172.5 49t54.5 117q0 31 -12 60.5t-36.5 56.5t-71 43t-107.5 16h-672q-61 0 -107.5 -16t-71 -43t-36.5 -56.5t-12 -60.5zM440 995q0 -73 56 -115t159 -42h631q103 0 159 42t56 115q0 72 -54 118 t-161 46h-631q-107 0 -161 -46t-54 -118z" />
<glyph unicode="9" horiz-adv-x="2004" d="M94 975q0 93 30.5 168.5t93 134t168.5 91t247 32.5h694q141 0 244.5 -31t164 -88.5t89 -131.5t28.5 -167v-565q0 -93 -28.5 -167t-89 -131.5t-164 -88.5t-244.5 -31h-1155v260h1169q207 0 207 158v131h-915q-141 0 -247 32.5t-168.5 91t-93 134t-30.5 168.5zM399 975 q0 -33 9.5 -61t32 -55t68 -42.5t109.5 -15.5h930v182q0 166 -207 166h-723q-64 0 -109.5 -15.5t-68 -42.5t-32 -55t-9.5 -61z" />
<glyph unicode=":" horiz-adv-x="626" d="M154 0v322h319v-322h-319zM154 969v321h319v-321h-319z" />
<glyph unicode=";" horiz-adv-x="731" d="M104 -231l140 553h319l-219 -553h-240zM215 969v321h320v-321h-320z" />
<glyph unicode="&#x3c;" horiz-adv-x="1163" d="M74 649v119l934 481v-268l-588 -272l588 -273v-268z" />
<glyph unicode="=" horiz-adv-x="1574" d="M154 289v243h1267v-243h-1267zM154 887v243h1267v-243h-1267z" />
<glyph unicode="&#x3e;" horiz-adv-x="1163" d="M156 168v268l587 273l-587 272v268l934 -481v-119z" />
<glyph unicode="?" horiz-adv-x="1437" d="M74 1143v258h811q225 0 351 -90t126 -262q0 -76 -24 -136.5t-67 -101.5t-83.5 -65.5t-91.5 -45.5l-285 -116q-41 -17 -55.5 -34t-14.5 -61v-83h-272v102q0 48 4.5 81t20 74t51.5 73.5t92 54.5l334 135q100 41 100 112q0 46 -38 75.5t-126 29.5h-833zM444 0v281h320v-281 h-320z" />
<glyph unicode="@" horiz-adv-x="2170" d="M111 530v277q0 180 61 315t177.5 220t281 127t377.5 42h163q213 0 377.5 -42t281 -127t177.5 -220t61 -315v-518h-1026q-243 0 -365 73t-122 250v113q0 178 121.5 251t365.5 73h95q245 0 366 -73t121 -251v-223h215v319q0 469 -668 469h-163q-668 0 -668 -469v-305 q0 -469 668 -469h835v-221h-835q-213 0 -377.5 42t-281 127t-177.5 220t-61 315zM793 612q0 -35 17.5 -58t52 -34t70.5 -14.5t89 -3.5h364v223q0 29 -12.5 50t-31.5 32.5t-51 18t-61.5 8.5t-72.5 2h-135q-53 0 -88.5 -3.5t-70.5 -14t-52.5 -34t-17.5 -59.5v-113z" />
<glyph unicode="A" d="M43 0l573 1124q28 56 56 98t66 81t81.5 64t102.5 39.5t129 14.5q87 0 155.5 -21t119 -63.5t86.5 -91.5t73 -121l575 -1124h-315l-178 346h-1032l-179 -346h-313zM668 606h764l-236 459q-25 48 -58 72t-87 24t-87.5 -24t-58.5 -72z" />
<glyph unicode="B" horiz-adv-x="2056" d="M174 0v1401h1198q104 0 189 -15.5t139.5 -39.5t95.5 -58.5t62.5 -67t34 -71.5t15.5 -65t3 -54q0 -239 -240 -315q277 -79 277 -336q0 -175 -134.5 -277t-412.5 -102h-1227zM457 262h975q119 0 173 44.5t54 111.5q0 32 -12 60.5t-39 55t-77.5 42.5t-119.5 16h-954v-330z M457 842h934q235 0 235 147q0 71 -53.5 112.5t-161.5 41.5h-954v-301z" />
<glyph unicode="C" horiz-adv-x="1998" d="M111 700q0 178 35 305t113.5 217.5t209 134.5t317.5 44h1108v-285h-1108q-71 0 -126.5 -9.5t-95 -25.5t-67.5 -44.5t-45 -60t-26.5 -77.5t-12.5 -91t-3 -108t3 -108t12.5 -91t26.5 -76.5t45 -58.5t67.5 -44.5t95 -25.5t126.5 -9h1108v-287h-1108q-187 0 -317.5 44 t-209 134t-113.5 217t-35 305z" />
<glyph unicode="D" horiz-adv-x="2109" d="M174 0v1401h1151q187 0 317 -44t208.5 -134.5t113.5 -217.5t35 -305t-35 -305t-113.5 -217t-208.5 -134t-317 -44h-1151zM467 287h858q99 0 167.5 18.5t109 49t62.5 85.5t29 113t7 147q0 73 -4.5 124.5t-18 102t-39.5 82.5t-67 58t-102 37.5t-144 11.5h-858v-829z" />
<glyph unicode="E" horiz-adv-x="2029" d="M111 700q0 177 35 304.5t114 218t209 134.5t317 44h1110v-279h-1110q-101 0 -171 -18.5t-112.5 -57.5t-63.5 -90.5t-29 -124.5h1462v-262h-1462q11 -98 45.5 -158.5t115.5 -95t215 -34.5h1110v-281h-1110q-187 0 -317 44t-209 134t-114 217.5t-35 304.5z" />
<glyph unicode="F" horiz-adv-x="1931" d="M158 0v782q0 178 45.5 298.5t143 191t232.5 100t330 29.5h932v-287h-932q-90 0 -150.5 -4.5t-116 -17.5t-88.5 -35.5t-58 -60t-35 -89.5t-10 -125v-39h1339v-260h-1339v-483h-293z" />
<glyph unicode="G" horiz-adv-x="2033" d="M111 702q0 177 35 303.5t113 217t208 134.5t317 44h1094v-285h-1094q-71 0 -126 -9.5t-94.5 -25.5t-67 -44t-44.5 -59t-26.5 -77t-12.5 -91t-3 -108t3 -108.5t12.5 -91.5t26.5 -77t44.5 -59t67 -44t94.5 -25.5t126 -9.5h818v477h292v-764h-1110q-187 0 -317 44t-208 135 t-113 218t-35 305z" />
<glyph unicode="H" horiz-adv-x="2109" d="M174 0v1401h293v-570h1175v570h293v-1401h-293v571h-1175v-571h-293z" />
<glyph unicode="I" horiz-adv-x="641" d="M174 0v1401h293v-1401h-293z" />
<glyph unicode="J" horiz-adv-x="1558" d="M45 0v287h678q222 0 302.5 61t80.5 232v821h293v-821q0 -311 -162 -445.5t-514 -134.5h-678z" />
<glyph unicode="K" horiz-adv-x="1933" d="M174 0v1401h293v-557h459q138 0 276 172l299 385h391l-438 -508q-101 -120 -215 -172q144 -48 250 -182l438 -539h-391l-305 410q-19 26 -41.5 50.5t-58.5 55.5t-80.5 49.5t-89.5 18.5h-494v-584h-293z" />
<glyph unicode="L" horiz-adv-x="1814" d="M160 580v821h293v-821q0 -171 80.5 -232t302.5 -61h933v-287h-933q-352 0 -514 134.5t-162 445.5z" />
<glyph unicode="M" horiz-adv-x="2478" d="M174 0v1401h285q39 0 69.5 -8.5t55.5 -27t38.5 -33t34.5 -40.5l582 -714l582 714q21 26 34.5 40.5t38.5 33t55.5 27t69.5 8.5h285v-1401h-287v1092l-665 -803h-226l-665 803v-1092h-287z" />
<glyph unicode="N" horiz-adv-x="2193" d="M174 0v1401h207q58 0 105 -3t92.5 -14t81 -22t76 -35.5t70.5 -46.5t71 -64t72 -77t79 -97.5t86.5 -114t99.5 -136.5q256 -354 327 -424t183 -70h2v1104h293v-1401h-207q-67 0 -119 5t-104 21t-91.5 34.5t-89 58.5t-88.5 78t-98.5 108.5t-110.5 135.5t-132 171 q-239 314 -294 376q-76 87 -128 105q-30 11 -88 11h-2v-1104h-293z" />
<glyph unicode="O" horiz-adv-x="2174" d="M104 700q0 203 58.5 341.5t183.5 222.5t304.5 120.5t436.5 36.5t436.5 -36.5t305 -120.5t184 -222.5t58.5 -341.5q0 -163 -39 -283.5t-114.5 -204.5t-196 -135t-275 -74t-359.5 -23q-257 0 -436.5 36.5t-304.5 120t-183.5 222t-58.5 341.5zM403 700q0 -73 10 -131.5 t32.5 -103t52.5 -77.5t75.5 -56.5t95 -38t118.5 -23t138.5 -11.5t161.5 -3q106 0 183 4t153 15.5t127 32t96 53.5t71 80t40.5 111.5t14.5 147.5q0 73 -10 131.5t-33 103t-52.5 78t-75.5 56.5t-95.5 38t-118.5 23.5t-138.5 11.5t-161.5 3q-106 0 -183 -4t-152.5 -15.5 t-127 -32.5t-96.5 -54t-70.5 -80t-40 -111.5t-14.5 -147.5z" />
<glyph unicode="P" horiz-adv-x="2011" d="M174 0v1401h1215q141 0 250 -37.5t175.5 -103t100 -148.5t33.5 -180q0 -98 -33.5 -181.5t-100 -149.5t-175.5 -104t-250 -38h-922v-459h-293zM467 717h936q64 0 112.5 20t75 53t39 68.5t12.5 71.5t-13 71.5t-39.5 68.5t-75 53t-111.5 20h-936v-426z" />
<glyph unicode="Q" horiz-adv-x="2174" d="M104 700q0 203 58.5 341.5t183.5 222.5t304.5 120.5t436.5 36.5t436.5 -36.5t305 -120.5t184 -222.5t58.5 -341.5q0 -284 -117.5 -444t-364.5 -225q19 -20 56 -59.5t55 -59.5l219 -236h-379l-151 183q-63 75 -121.5 98t-180.5 23q-257 0 -436.5 36.5t-304.5 120 t-183.5 222t-58.5 341.5zM403 700q0 -73 10 -131.5t32.5 -103t52.5 -77.5t75.5 -56.5t95 -38t118.5 -23t138.5 -11.5t161.5 -3q106 0 183 4t153 15.5t127 32t96 53.5t71 80t40.5 111.5t14.5 147.5q0 73 -10 131.5t-33 103t-52.5 78t-75.5 56.5t-95.5 38t-118.5 23.5 t-138.5 11.5t-161.5 3q-106 0 -183 -4t-152.5 -15.5t-127 -32.5t-96.5 -54t-70.5 -80t-40 -111.5t-14.5 -147.5z" />
<glyph unicode="R" horiz-adv-x="2064" d="M174 0v1401h1217q261 0 409 -113.5t148 -322.5q0 -287 -287 -371q130 -42 193 -124t63 -194v-276h-303v283q0 32 -10.5 61t-34.5 56.5t-71.5 44t-113.5 16.5h-917v-461h-293zM467 721h946q64 0 112 19.5t74 52t38 67.5t12 72t-12 72t-38 67.5t-74 52t-112 19.5h-946v-422 z" />
<glyph unicode="S" horiz-adv-x="1974" d="M115 0v262h1245q122 0 174.5 34t52.5 97q0 71 -67 108.5t-217 49.5l-678 53q-246 20 -375 114t-129 281q0 87 28.5 155.5t77.5 114.5t118 76t146.5 43t167.5 13h1139v-262h-1165q-215 0 -215 -131q0 -41 22.5 -67t85 -44t174.5 -27l646 -51q129 -11 224.5 -37t169 -73.5 t111 -123t37.5 -179.5q0 -189 -132 -297.5t-415 -108.5h-1226z" />
<glyph unicode="T" horiz-adv-x="1763" d="M39 1137v264h1685v-264h-696v-1137h-293v1137h-696z" />
<glyph unicode="U" horiz-adv-x="2041" d="M154 676v725h292v-725q0 -87 10.5 -147.5t37.5 -108t67.5 -76.5t107.5 -47.5t150.5 -25.5t202.5 -7t202 7t150 25.5t107 47t67 76.5t37 108.5t10 147.5v725h293v-725q0 -192 -46.5 -322.5t-151.5 -215t-267 -121.5t-401 -37q-318 0 -506 69t-275 220t-87 407z" />
<glyph unicode="V" horiz-adv-x="2072" d="M41 1401h321l529 -1049q25 -48 58 -71t87 -23t87.5 23.5t58.5 70.5l528 1049h322l-557 -1125q-35 -70 -72 -120.5t-89 -92t-121.5 -62.5t-156.5 -21t-156.5 21t-121 62.5t-88.5 92t-72 120.5z" />
<glyph unicode="W" horiz-adv-x="2967" d="M43 1401h309l459 -1026q31 -68 66 -93.5t90 -25.5q57 0 93 24.5t64 81.5l203 416l-301 623h295l162 -336l164 336h295l-302 -623l203 -416q28 -57 64.5 -81.5t93.5 -24.5q55 0 90 25.5t66 93.5l458 1026h310l-506 -1133q-130 -288 -420 -288q-132 0 -239.5 65.5 t-172.5 198.5l-104 213l-103 -213q-65 -133 -173 -198.5t-238 -65.5q-290 0 -420 288z" />
<glyph unicode="X" horiz-adv-x="1900" d="M10 0l719 711l-694 690h411l390 -418q51 -51 114 -131q24 34 117 131l389 418h408l-693 -690l721 -711h-401l-424 442q-86 86 -117 127q-32 -45 -114 -127l-424 -442h-402z" />
<glyph unicode="Y" horiz-adv-x="2009" d="M8 1401h426l430 -518q12 -15 43.5 -50t55 -65.5t41.5 -62.5q19 33 40.5 61t58 68.5t42.5 48.5l430 518h426l-692 -756q-2 -2 -22 -23.5t-29.5 -32t-29 -33.5t-30 -39.5t-23.5 -38t-18.5 -41t-5.5 -36.5v-401h-293v401q0 21 -9.5 46t-21 44.5t-33.5 47.5t-33 40.5 t-35.5 38t-25.5 27.5z" />
<glyph unicode="Z" horiz-adv-x="1873" d="M104 0v195q0 74 22 138.5t54 113t91 94.5t108.5 76.5t132.5 65t138.5 54.5t148.5 51q296 97 384 135q179 76 216 160q12 27 12 56v2h-1280v260h1608v-195q0 -77 -24 -145.5t-61 -120t-98.5 -100t-118 -82t-139.5 -68.5t-143.5 -56.5t-148.5 -49.5q-27 -8 -79 -25 q-66 -20 -98.5 -30.5t-89 -30t-86 -32.5t-71.5 -32.5t-63.5 -36.5t-44 -39t-31.5 -46t-9 -50v-2h1344v-260h-1674z" />
<glyph unicode="[" horiz-adv-x="823" d="M166 -215v1790h565v-227h-311v-1336h311v-227h-565z" />
<glyph unicode="\" horiz-adv-x="1167" d="M53 1575h260l801 -1790h-260z" />
<glyph unicode="]" horiz-adv-x="823" d="M92 12h311v1336h-311v227h565v-1790h-565v227z" />
<glyph unicode="^" horiz-adv-x="1359" d="M53 719l563 770h119l563 -770h-288l-334 424l-334 -424h-289z" />
<glyph unicode="_" horiz-adv-x="1759" d="M152 -135h1460v-236h-1460v236z" />
<glyph unicode="`" horiz-adv-x="1024" d="M219 1905h332l262 -377h-258z" />
<glyph unicode="a" d="M43 0l573 1124q28 56 56 98t66 81t81.5 64t102.5 39.5t129 14.5q87 0 155.5 -21t119 -63.5t86.5 -91.5t73 -121l575 -1124h-315l-178 346h-1032l-179 -346h-313zM668 606h764l-236 459q-25 48 -58 72t-87 24t-87.5 -24t-58.5 -72z" />
<glyph unicode="b" horiz-adv-x="2056" d="M174 0v1401h1198q104 0 189 -15.5t139.5 -39.5t95.5 -58.5t62.5 -67t34 -71.5t15.5 -65t3 -54q0 -239 -240 -315q277 -79 277 -336q0 -175 -134.5 -277t-412.5 -102h-1227zM457 262h975q119 0 173 44.5t54 111.5q0 32 -12 60.5t-39 55t-77.5 42.5t-119.5 16h-954v-330z M457 842h934q235 0 235 147q0 71 -53.5 112.5t-161.5 41.5h-954v-301z" />
<glyph unicode="c" horiz-adv-x="1998" d="M111 700q0 178 35 305t113.5 217.5t209 134.5t317.5 44h1108v-285h-1108q-71 0 -126.5 -9.5t-95 -25.5t-67.5 -44.5t-45 -60t-26.5 -77.5t-12.5 -91t-3 -108t3 -108t12.5 -91t26.5 -76.5t45 -58.5t67.5 -44.5t95 -25.5t126.5 -9h1108v-287h-1108q-187 0 -317.5 44 t-209 134t-113.5 217t-35 305z" />
<glyph unicode="d" horiz-adv-x="2109" d="M174 0v1401h1151q187 0 317 -44t208.5 -134.5t113.5 -217.5t35 -305t-35 -305t-113.5 -217t-208.5 -134t-317 -44h-1151zM467 287h858q99 0 167.5 18.5t109 49t62.5 85.5t29 113t7 147q0 73 -4.5 124.5t-18 102t-39.5 82.5t-67 58t-102 37.5t-144 11.5h-858v-829z" />
<glyph unicode="e" horiz-adv-x="2029" d="M111 700q0 177 35 304.5t114 218t209 134.5t317 44h1110v-279h-1110q-101 0 -171 -18.5t-112.5 -57.5t-63.5 -90.5t-29 -124.5h1462v-262h-1462q11 -98 45.5 -158.5t115.5 -95t215 -34.5h1110v-281h-1110q-187 0 -317 44t-209 134t-114 217.5t-35 304.5z" />
<glyph unicode="f" horiz-adv-x="1931" d="M158 0v782q0 178 45.5 298.5t143 191t232.5 100t330 29.5h932v-287h-932q-90 0 -150.5 -4.5t-116 -17.5t-88.5 -35.5t-58 -60t-35 -89.5t-10 -125v-39h1339v-260h-1339v-483h-293z" />
<glyph unicode="g" horiz-adv-x="2033" d="M111 702q0 177 35 303.5t113 217t208 134.5t317 44h1094v-285h-1094q-71 0 -126 -9.5t-94.5 -25.5t-67 -44t-44.5 -59t-26.5 -77t-12.5 -91t-3 -108t3 -108.5t12.5 -91.5t26.5 -77t44.5 -59t67 -44t94.5 -25.5t126 -9.5h818v477h292v-764h-1110q-187 0 -317 44t-208 135 t-113 218t-35 305z" />
<glyph unicode="h" horiz-adv-x="2109" d="M174 0v1401h293v-570h1175v570h293v-1401h-293v571h-1175v-571h-293z" />
<glyph unicode="i" horiz-adv-x="641" d="M174 0v1401h293v-1401h-293z" />
<glyph unicode="j" horiz-adv-x="1558" d="M45 0v287h678q222 0 302.5 61t80.5 232v821h293v-821q0 -311 -162 -445.5t-514 -134.5h-678z" />
<glyph unicode="k" horiz-adv-x="1933" d="M174 0v1401h293v-557h459q138 0 276 172l299 385h391l-438 -508q-101 -120 -215 -172q144 -48 250 -182l438 -539h-391l-305 410q-19 26 -41.5 50.5t-58.5 55.5t-80.5 49.5t-89.5 18.5h-494v-584h-293z" />
<glyph unicode="l" horiz-adv-x="1814" d="M160 580v821h293v-821q0 -171 80.5 -232t302.5 -61h933v-287h-933q-352 0 -514 134.5t-162 445.5z" />
<glyph unicode="m" horiz-adv-x="2478" d="M174 0v1401h285q39 0 69.5 -8.5t55.5 -27t38.5 -33t34.5 -40.5l582 -714l582 714q21 26 34.5 40.5t38.5 33t55.5 27t69.5 8.5h285v-1401h-287v1092l-665 -803h-226l-665 803v-1092h-287z" />
<glyph unicode="n" horiz-adv-x="2193" d="M174 0v1401h207q58 0 105 -3t92.5 -14t81 -22t76 -35.5t70.5 -46.5t71 -64t72 -77t79 -97.5t86.5 -114t99.5 -136.5q256 -354 327 -424t183 -70h2v1104h293v-1401h-207q-67 0 -119 5t-104 21t-91.5 34.5t-89 58.5t-88.5 78t-98.5 108.5t-110.5 135.5t-132 171 q-239 314 -294 376q-76 87 -128 105q-30 11 -88 11h-2v-1104h-293z" />
<glyph unicode="o" horiz-adv-x="2174" d="M104 700q0 203 58.5 341.5t183.5 222.5t304.5 120.5t436.5 36.5t436.5 -36.5t305 -120.5t184 -222.5t58.5 -341.5q0 -163 -39 -283.5t-114.5 -204.5t-196 -135t-275 -74t-359.5 -23q-257 0 -436.5 36.5t-304.5 120t-183.5 222t-58.5 341.5zM403 700q0 -73 10 -131.5 t32.5 -103t52.5 -77.5t75.5 -56.5t95 -38t118.5 -23t138.5 -11.5t161.5 -3q106 0 183 4t153 15.5t127 32t96 53.5t71 80t40.5 111.5t14.5 147.5q0 73 -10 131.5t-33 103t-52.5 78t-75.5 56.5t-95.5 38t-118.5 23.5t-138.5 11.5t-161.5 3q-106 0 -183 -4t-152.5 -15.5 t-127 -32.5t-96.5 -54t-70.5 -80t-40 -111.5t-14.5 -147.5z" />
<glyph unicode="p" horiz-adv-x="2011" d="M174 0v1401h1215q141 0 250 -37.5t175.5 -103t100 -148.5t33.5 -180q0 -98 -33.5 -181.5t-100 -149.5t-175.5 -104t-250 -38h-922v-459h-293zM467 717h936q64 0 112.5 20t75 53t39 68.5t12.5 71.5t-13 71.5t-39.5 68.5t-75 53t-111.5 20h-936v-426z" />
<glyph unicode="q" horiz-adv-x="2174" d="M104 700q0 203 58.5 341.5t183.5 222.5t304.5 120.5t436.5 36.5t436.5 -36.5t305 -120.5t184 -222.5t58.5 -341.5q0 -284 -117.5 -444t-364.5 -225q19 -20 56 -59.5t55 -59.5l219 -236h-379l-151 183q-63 75 -121.5 98t-180.5 23q-257 0 -436.5 36.5t-304.5 120 t-183.5 222t-58.5 341.5zM403 700q0 -73 10 -131.5t32.5 -103t52.5 -77.5t75.5 -56.5t95 -38t118.5 -23t138.5 -11.5t161.5 -3q106 0 183 4t153 15.5t127 32t96 53.5t71 80t40.5 111.5t14.5 147.5q0 73 -10 131.5t-33 103t-52.5 78t-75.5 56.5t-95.5 38t-118.5 23.5 t-138.5 11.5t-161.5 3q-106 0 -183 -4t-152.5 -15.5t-127 -32.5t-96.5 -54t-70.5 -80t-40 -111.5t-14.5 -147.5z" />
<glyph unicode="r" horiz-adv-x="2064" d="M174 0v1401h1217q261 0 409 -113.5t148 -322.5q0 -287 -287 -371q130 -42 193 -124t63 -194v-276h-303v283q0 32 -10.5 61t-34.5 56.5t-71.5 44t-113.5 16.5h-917v-461h-293zM467 721h946q64 0 112 19.5t74 52t38 67.5t12 72t-12 72t-38 67.5t-74 52t-112 19.5h-946v-422 z" />
<glyph unicode="s" horiz-adv-x="1974" d="M115 0v262h1245q122 0 174.5 34t52.5 97q0 71 -67 108.5t-217 49.5l-678 53q-246 20 -375 114t-129 281q0 87 28.5 155.5t77.5 114.5t118 76t146.5 43t167.5 13h1139v-262h-1165q-215 0 -215 -131q0 -41 22.5 -67t85 -44t174.5 -27l646 -51q129 -11 224.5 -37t169 -73.5 t111 -123t37.5 -179.5q0 -189 -132 -297.5t-415 -108.5h-1226z" />
<glyph unicode="t" horiz-adv-x="1763" d="M39 1137v264h1685v-264h-696v-1137h-293v1137h-696z" />
<glyph unicode="u" horiz-adv-x="2041" d="M154 676v725h292v-725q0 -87 10.5 -147.5t37.5 -108t67.5 -76.5t107.5 -47.5t150.5 -25.5t202.5 -7t202 7t150 25.5t107 47t67 76.5t37 108.5t10 147.5v725h293v-725q0 -192 -46.5 -322.5t-151.5 -215t-267 -121.5t-401 -37q-318 0 -506 69t-275 220t-87 407z" />
<glyph unicode="v" horiz-adv-x="2072" d="M41 1401h321l529 -1049q25 -48 58 -71t87 -23t87.5 23.5t58.5 70.5l528 1049h322l-557 -1125q-35 -70 -72 -120.5t-89 -92t-121.5 -62.5t-156.5 -21t-156.5 21t-121 62.5t-88.5 92t-72 120.5z" />
<glyph unicode="w" horiz-adv-x="2967" d="M43 1401h309l459 -1026q31 -68 66 -93.5t90 -25.5q57 0 93 24.5t64 81.5l203 416l-301 623h295l162 -336l164 336h295l-302 -623l203 -416q28 -57 64.5 -81.5t93.5 -24.5q55 0 90 25.5t66 93.5l458 1026h310l-506 -1133q-130 -288 -420 -288q-132 0 -239.5 65.5 t-172.5 198.5l-104 213l-103 -213q-65 -133 -173 -198.5t-238 -65.5q-290 0 -420 288z" />
<glyph unicode="x" horiz-adv-x="1900" d="M10 0l719 711l-694 690h411l390 -418q51 -51 114 -131q24 34 117 131l389 418h408l-693 -690l721 -711h-401l-424 442q-86 86 -117 127q-32 -45 -114 -127l-424 -442h-402z" />
<glyph unicode="y" horiz-adv-x="2009" d="M8 1401h426l430 -518q12 -15 43.5 -50t55 -65.5t41.5 -62.5q19 33 40.5 61t58 68.5t42.5 48.5l430 518h426l-692 -756q-2 -2 -22 -23.5t-29.5 -32t-29 -33.5t-30 -39.5t-23.5 -38t-18.5 -41t-5.5 -36.5v-401h-293v401q0 21 -9.5 46t-21 44.5t-33.5 47.5t-33 40.5 t-35.5 38t-25.5 27.5z" />
<glyph unicode="z" horiz-adv-x="1873" d="M104 0v195q0 74 22 138.5t54 113t91 94.5t108.5 76.5t132.5 65t138.5 54.5t148.5 51q296 97 384 135q179 76 216 160q12 27 12 56v2h-1280v260h1608v-195q0 -77 -24 -145.5t-61 -120t-98.5 -100t-118 -82t-139.5 -68.5t-143.5 -56.5t-148.5 -49.5q-27 -8 -79 -25 q-66 -20 -98.5 -30.5t-89 -30t-86 -32.5t-71.5 -32.5t-63.5 -36.5t-44 -39t-31.5 -46t-9 -50v-2h1344v-260h-1674z" />
<glyph unicode="{" horiz-adv-x="966" d="M45 582v196q117 0 190.5 57.5t73.5 159.5v338q0 107 67 174.5t173 67.5h325v-227h-247q-64 0 -64 -64v-336q0 -177 -164 -268q164 -91 164 -268v-336q0 -64 64 -64h247v-227h-325q-106 0 -173 67.5t-67 174.5v338q0 102 -73.5 159.5t-190.5 57.5z" />
<glyph unicode="|" horiz-adv-x="585" d="M166 -215v1790h254v-1790h-254z" />
<glyph unicode="}" horiz-adv-x="966" d="M92 12h248q63 0 63 64v336q0 179 164 268q-164 89 -164 268v336q0 64 -63 64h-248v227h326q106 0 172.5 -67.5t66.5 -174.5v-338q0 -102 74 -159.5t191 -57.5v-196q-117 0 -191 -57.5t-74 -159.5v-338q0 -107 -66.5 -174.5t-172.5 -67.5h-326v227z" />
<glyph unicode="~" horiz-adv-x="1599" d="M129 500q9 62 24.5 117.5t46 115t72 102.5t105.5 71t143 28q83 0 165.5 -31t138 -67.5t124 -67.5t125.5 -31q21 0 39.5 4t32 10t25.5 16.5t20 19t15 23t11 23t7.5 23.5t4.5 20.5t3 19.5l2 13h237q-9 -62 -25 -118t-47 -115t-72.5 -101.5t-106 -70t-142.5 -27.5 q-67 0 -133 20t-117.5 48.5t-100.5 57.5t-100.5 49t-99.5 20q-38 0 -67.5 -13.5t-45 -30t-26 -44t-13.5 -41.5t-6 -36q-1 -5 -1 -7h-238z" />
<glyph unicode="&#xa1;" horiz-adv-x="634" d="M158 1120v281h319v-281h-319zM170 0l31 975h233l31 -975h-295z" />
<glyph unicode="&#xa2;" horiz-adv-x="1497" d="M78 680q0 141 28 241.5t90.5 172t166 106.5t251.5 35h181v221h233v-221h346v-262h-760q-58 0 -101 -8t-72 -26.5t-46.5 -41t-27 -58.5t-12.5 -71.5t-3 -87.5t3 -87.5t12.5 -71t27 -58t46.5 -40.5t72 -26t101 -8h760v-264h-346v-279h-233v279h-181q-148 0 -251.5 35 t-166 106.5t-90.5 172t-28 241.5z" />
<glyph unicode="&#xa3;" horiz-adv-x="1818" d="M96 0v211l264 41v270h-245v240h245v59q0 312 156.5 446t507.5 134h600v-264h-600q-218 0 -300.5 -70.5t-82.5 -245.5v-59h627v-240h-627v-268h1096v-254h-1641z" />
<glyph unicode="&#xa4;" horiz-adv-x="1796" d="M104 215l203 203q-65 118 -65 278q0 161 65 279l-203 205l181 180l202 -205q163 94 410 94t410 -94l204 205l181 -180l-205 -205q65 -118 65 -279q0 -160 -65 -278l205 -203l-181 -180l-202 203q-160 -95 -412 -95q-250 0 -412 93l-200 -201zM518 696q0 -160 99.5 -238.5 t279.5 -78.5t279.5 78.5t99.5 238.5t-99.5 239t-279.5 79t-279.5 -79t-99.5 -239z" />
<glyph unicode="&#xa5;" horiz-adv-x="1896" d="M66 1401h395l379 -479q76 -93 108 -179q30 80 109 179l379 479h395q-103 -122 -428 -494l-72 -82h318v-207h-494q-72 -91 -72 -176v-2h568v-207h-568v-233h-270v233h-565v207h565v2q0 85 -72 176h-493v207h315l-71 82q-42 49 -193.5 223.5t-232.5 270.5z" />
<glyph unicode="&#xa6;" horiz-adv-x="589" d="M168 -215v805h254v-805h-254zM168 827v748h254v-748h-254z" />
<glyph unicode="&#xa7;" horiz-adv-x="1679" d="M92 684q0 152 148 229q-62 71 -62 189q0 78 27.5 136.5t77.5 93.5t115.5 52t146.5 17h962v-219h-985q-100 0 -100 -70q0 -66 113 -74l682 -43q184 -12 279 -84t95 -194q0 -154 -145 -230q59 -71 59 -182q0 -153 -99.5 -229t-266.5 -76h-983v227h1005q101 0 101 70 q0 57 -113 65l-682 44q-184 12 -279.5 84.5t-95.5 193.5zM342 737q0 -36 32.5 -65t108.5 -33l705 -45q45 -3 86 -12q67 26 67 84q0 39 -32 68t-109 34l-704 45q-29 2 -84 10q-70 -31 -70 -86z" />
<glyph unicode="&#xa8;" horiz-adv-x="1255" d="M223 1554v277h289v-277h-289zM750 1554v277h288v-277h-288z" />
<glyph unicode="&#xa9;" horiz-adv-x="2230" d="M104 700q0 404 246.5 588.5t763.5 184.5q519 0 765.5 -184.5t246.5 -588.5t-246.5 -588t-765.5 -184q-517 0 -763.5 184t-246.5 588zM301 700q0 -145 33 -249.5t95 -172.5t164.5 -108t226 -56t294.5 -16q172 0 296 16t226.5 56t164.5 108t95 172.5t33 249.5 q0 104 -17 186.5t-48.5 146t-83 109.5t-115.5 77t-150.5 49.5t-182.5 26.5t-218 8q-171 0 -294.5 -16t-226 -56t-164.5 -108.5t-95 -173t-33 -249.5zM604 700q0 183 79.5 271t268.5 88h557v-170h-557q-56 0 -91 -11.5t-52 -38.5t-22 -57.5t-5 -81.5t5 -81.5t22 -57t51.5 -38 t91.5 -11.5h557v-170h-557q-189 0 -268.5 87.5t-79.5 270.5z" />
<glyph unicode="&#xab;" horiz-adv-x="1923" d="M63 709l885 540v-297l-430 -243l430 -244v-297zM872 709l885 540v-297l-430 -243l430 -244v-297z" />
<glyph unicode="&#xad;" horiz-adv-x="1073" d="M154 582v256h766v-256h-766z" />
<glyph unicode="&#xae;" horiz-adv-x="2230" d="M104 700q0 404 246.5 588.5t763.5 184.5q519 0 765.5 -184.5t246.5 -588.5t-246.5 -588t-765.5 -184q-517 0 -763.5 184t-246.5 588zM301 700q0 -145 33 -249.5t95 -172.5t164.5 -108t226 -56t294.5 -16q172 0 296 16t226.5 56t164.5 108t95 172.5t33 249.5 q0 104 -17 186.5t-48.5 146t-83 109.5t-115.5 77t-150.5 49.5t-182.5 26.5t-218 8q-171 0 -294.5 -16t-226 -56t-164.5 -108.5t-95 -173t-33 -249.5zM678 340v717h612q134 0 210.5 -60t76.5 -168q0 -135 -123 -184q109 -46 109 -153v-152h-179v154q0 29 -22 50t-76 21h-434 v-225h-174zM852 723h438q61 0 87 27t26 63q0 35 -25.5 61.5t-87.5 26.5h-438v-178z" />
<glyph unicode="&#xb0;" horiz-adv-x="954" d="M111 1102q0 152 107 259t259 107t259.5 -107t107.5 -259t-107.5 -259.5t-259.5 -107.5t-259 107.5t-107 259.5zM299 1102q0 -74 52.5 -126t125.5 -52t125.5 52t52.5 126t-52.5 126t-125.5 52t-125.5 -52t-52.5 -126z" />
<glyph unicode="&#xb1;" horiz-adv-x="1542" d="M137 0v227h1268v-227h-1268zM137 727v227h520v357h228v-357h520v-227h-520v-356h-228v356h-520z" />
<glyph unicode="&#xb4;" horiz-adv-x="1116" d="M260 1528l262 377h332l-336 -377h-258z" />
<glyph unicode="&#xb6;" horiz-adv-x="1853" d="M76 932q0 97 32 180t96 148.5t171 103t248 37.5h1054v-1401h-278v1155h-172v-1155h-279v459h-325q-141 0 -248 37.5t-171 104t-96 150t-32 181.5zM367 930q0 -37 12.5 -74t39 -72t75 -57t112.5 -22h342v450h-342q-63 0 -111.5 -22t-75 -57t-39.5 -72.5t-13 -73.5z" />
<glyph unicode="&#xb7;" horiz-adv-x="626" d="M154 606v322h319v-322h-319z" />
<glyph unicode="&#xb8;" horiz-adv-x="909" d="M98 -592l41 180h289q57 0 89 21t32 63q0 80 -121 80h-221l102 338h207l-63 -178h18q156 0 236.5 -68t80.5 -180q0 -73 -34.5 -125t-94 -79.5t-124 -39.5t-138.5 -12h-299z" />
<glyph unicode="&#xbb;" horiz-adv-x="1923" d="M166 168v297l430 244l-430 243v297l885 -540zM975 168v297l430 244l-430 243v297l885 -540z" />
<glyph unicode="&#xbf;" horiz-adv-x="1437" d="M76 352q0 61 17 113.5t42.5 87.5t63.5 65.5t70.5 48t72.5 33.5l285 117q41 17 55 33.5t14 60.5v84h273v-102q0 -48 -4.5 -81t-20 -74t-51.5 -73.5t-92 -54.5l-334 -135q-100 -41 -100 -113q0 -45 37.5 -74.5t125.5 -29.5h834v-258h-811q-225 0 -351 90t-126 262z M674 1120v281h319v-281h-319z" />
<glyph unicode="&#xc0;" d="M43 0l573 1124q28 56 56 98t66 81t81.5 64t102.5 39.5t129 14.5q87 0 155.5 -21t119.5 -63.5t87 -92t72 -120.5l575 -1124h-315l-178 346h-1032l-179 -346h-313zM631 1905h332l262 -377h-258zM668 606h764l-236 459q-25 48 -58 72t-87 24t-87.5 -24t-58.5 -72z" />
<glyph unicode="&#xc1;" d="M43 0l573 1124q28 56 56 98t66 81t81.5 64t102.5 39.5t129 14.5q87 0 155.5 -21t119.5 -63.5t87 -92t72 -120.5l575 -1124h-315l-178 346h-1032l-179 -346h-313zM668 606h764l-236 459q-25 48 -58 72t-87 24t-87.5 -24t-58.5 -72zM836 1528l262 377h332l-336 -377h-258z " />
<glyph unicode="&#xc2;" d="M43 0l573 1124q28 56 56 98t66 81t81.5 64t102.5 39.5t129 14.5q87 0 155.5 -21t119.5 -63.5t87 -92t72 -120.5l575 -1124h-315l-178 346h-1032l-179 -346h-313zM567 1528l324 377h321l324 -377h-266l-219 201l-217 -201h-267zM668 606h764l-236 459q-25 48 -58 72 t-87 24t-87.5 -24t-58.5 -72z" />
<glyph unicode="&#xc3;" d="M43 0l573 1124q28 56 56 98t66 81t81.5 64t102.5 39.5t129 14.5q87 0 155.5 -21t119.5 -63.5t87 -92t72 -120.5l575 -1124h-315l-178 346h-1032l-179 -346h-313zM512 1532q7 47 19.5 92.5t38.5 96.5t60 89t87 63t117 25q60 0 121.5 -22.5t103 -50t93.5 -50t97 -22.5 q57 0 86.5 34t42.5 97h193q-7 -47 -19.5 -92t-38 -96.5t-59 -89.5t-86.5 -63t-117 -25q-61 0 -122.5 22.5t-103.5 50t-94 50t-95 22.5q-55 0 -86 -33t-43 -98h-195zM668 606h764l-236 459q-25 48 -58 72t-87 24t-87.5 -24t-58.5 -72z" />
<glyph unicode="&#xc4;" d="M43 0l573 1124q28 56 56 98t66 81t81.5 64t102.5 39.5t129 14.5q87 0 155.5 -21t119.5 -63.5t87 -92t72 -120.5l575 -1124h-315l-178 346h-1032l-179 -346h-313zM643 1554v277h289v-277h-289zM668 606h764l-236 459q-25 48 -58 72t-87 24t-87.5 -24t-58.5 -72zM1169 1554 v277h289v-277h-289z" />
<glyph unicode="&#xc5;" d="M43 0l573 1124q84 169 191 236q-109 91 -109 242q0 144 103 245t250 101t250.5 -101t103.5 -245q0 -148 -111 -244q101 -61 191 -234l575 -1124h-315l-178 346h-1032l-179 -346h-313zM668 606h764l-236 459q-25 48 -58 72t-87 24t-87.5 -24t-58.5 -72zM883 1595 q0 -70 49.5 -120t118.5 -50q71 0 120.5 49.5t49.5 120.5q0 69 -50 118.5t-120 49.5q-69 0 -118.5 -49.5t-49.5 -118.5z" />
<glyph unicode="&#xc6;" horiz-adv-x="3006" d="M12 0l666 1124q80 135 194 206t285 71h1725v-264h-1321q2 -5 5.5 -14t4.5 -13l94 -279h1171v-247h-1089l104 -320h1031v-264h-1256l-113 346h-981l-206 -346h-314zM684 598h748l-140 428q-40 125 -157 125q-116 0 -187 -117z" />
<glyph unicode="&#xc7;" horiz-adv-x="1998" d="M111 700q0 178 35 305t113.5 217.5t209 134.5t317.5 44h1108v-285h-968q-89 0 -156 -4t-121 -15t-91 -25.5t-64.5 -41t-43 -54.5t-25 -73t-12.5 -90.5t-3 -112.5q0 -89 5.5 -144.5t25 -106.5t53 -78.5t92.5 -48.5t140 -28t200 -7h968v-287h-682l-32 -88h18q156 0 237 -68 t81 -180q0 -59 -23.5 -104.5t-61.5 -73.5t-90.5 -46t-105.5 -25t-111 -7h-299l41 180h289q57 0 89 21t32 63q0 80 -121 80h-221l76 248h-224q-187 0 -317.5 44t-209 134t-113.5 217t-35 305z" />
<glyph unicode="&#xc8;" horiz-adv-x="2029" d="M111 700q0 177 35 304.5t114 218t209 134.5t317 44h1110v-279h-1110q-101 0 -171 -18.5t-112.5 -57.5t-63.5 -90.5t-29 -124.5h1462v-262h-1462q11 -98 45.5 -158.5t115.5 -95t215 -34.5h1110v-281h-1110q-187 0 -317 44t-209 134t-114 217.5t-35 304.5zM727 1905h332 l262 -377h-258z" />
<glyph unicode="&#xc9;" horiz-adv-x="2029" d="M111 700q0 177 35 304.5t114 218t209 134.5t317 44h1110v-279h-1110q-101 0 -171 -18.5t-112.5 -57.5t-63.5 -90.5t-29 -124.5h1462v-262h-1462q11 -98 45.5 -158.5t115.5 -95t215 -34.5h1110v-281h-1110q-187 0 -317 44t-209 134t-114 217.5t-35 304.5zM915 1528 l263 377h331l-335 -377h-259z" />
<glyph unicode="&#xca;" horiz-adv-x="2029" d="M111 700q0 177 35 304.5t114 218t209 134.5t317 44h1110v-279h-1110q-101 0 -171 -18.5t-112.5 -57.5t-63.5 -90.5t-29 -124.5h1462v-262h-1462q11 -98 45.5 -158.5t115.5 -95t215 -34.5h1110v-281h-1110q-187 0 -317 44t-209 134t-114 217.5t-35 304.5zM625 1528 l323 377h322l323 -377h-266l-219 201l-217 -201h-266z" />
<glyph unicode="&#xcb;" horiz-adv-x="2029" d="M111 700q0 177 35 304.5t114 218t209 134.5t317 44h1110v-279h-1110q-101 0 -171 -18.5t-112.5 -57.5t-63.5 -90.5t-29 -124.5h1462v-262h-1462q11 -98 45.5 -158.5t115.5 -95t215 -34.5h1110v-281h-1110q-187 0 -317 44t-209 134t-114 217.5t-35 304.5zM694 1554v277 h289v-277h-289zM1221 1554v277h288v-277h-288z" />
<glyph unicode="&#xcc;" horiz-adv-x="641" d="M-82 1905h332l262 -377h-258zM174 0v1401h293v-1401h-293z" />
<glyph unicode="&#xcd;" horiz-adv-x="641" d="M125 1528l262 377h332l-336 -377h-258zM174 0v1401h293v-1401h-293z" />
<glyph unicode="&#xce;" horiz-adv-x="641" d="M-164 1528l324 377h321l324 -377h-266l-220 201l-217 -201h-266zM174 0v1401h293v-1401h-293z" />
<glyph unicode="&#xcf;" horiz-adv-x="641" d="M-88 1554v277h289v-277h-289zM174 0v1401h293v-1401h-293zM438 1554v277h289v-277h-289z" />
<glyph unicode="&#xd0;" horiz-adv-x="2209" d="M39 586v252h235v563h1151q187 0 317 -44t208.5 -134.5t113.5 -217.5t35 -305t-35 -305t-113.5 -217t-208.5 -134t-317 -44h-1151v586h-235zM567 287h858q99 0 167.5 18.5t109 49t62.5 85.5t29 113t7 147q0 73 -4.5 124.5t-18 102t-39.5 82.5t-67 58t-102 37.5t-144 11.5 h-858v-278h709v-252h-709v-299z" />
<glyph unicode="&#xd1;" horiz-adv-x="2193" d="M174 0v1401h207q58 0 105 -3t92.5 -14t81 -22t76 -35.5t70.5 -46.5t71 -64t72 -77t79 -97.5t86.5 -114t99.5 -136.5q256 -354 327 -424t183 -70h2v1104h293v-1401h-207q-67 0 -119 5t-104 21t-91.5 34.5t-89 58.5t-88.5 78t-98.5 108.5t-110.5 135.5t-132 171 q-239 314 -294 376q-76 87 -128 105q-30 11 -88 11h-2v-1104h-293zM590 1532q7 47 19.5 92.5t38 96.5t59.5 89t87 63t117 25q60 0 121.5 -22.5t103.5 -50t94 -50t97 -22.5q57 0 86.5 34t42.5 97h193q-7 -47 -19.5 -92t-38 -96.5t-59 -89.5t-86.5 -63t-117 -25 q-61 0 -122.5 22.5t-104 50t-94.5 50t-95 22.5q-55 0 -86 -33t-43 -98h-194z" />
<glyph unicode="&#xd2;" horiz-adv-x="2174" d="M104 700q0 203 58.5 341.5t183.5 222.5t304.5 120.5t436.5 36.5t436.5 -36.5t305 -120.5t184 -222.5t58.5 -341.5q0 -163 -39 -283.5t-114.5 -204.5t-196 -135t-275 -74t-359.5 -23q-257 0 -436.5 36.5t-304.5 120t-183.5 222t-58.5 341.5zM403 700q0 -73 10 -131.5 t32.5 -103t52.5 -77.5t75.5 -56.5t95 -38t118.5 -23t138.5 -11.5t161.5 -3q106 0 183 4t153 15.5t127 32t96 53.5t71 80t40.5 111.5t14.5 147.5q0 73 -10 131.5t-33 103t-52.5 78t-75.5 56.5t-95.5 38t-118.5 23.5t-138.5 11.5t-161.5 3q-106 0 -183 -4t-152.5 -15.5 t-127 -32.5t-96.5 -54t-70.5 -80t-40 -111.5t-14.5 -147.5zM672 1905h332l262 -377h-258z" />
<glyph unicode="&#xd3;" horiz-adv-x="2174" d="M104 700q0 203 58.5 341.5t183.5 222.5t304.5 120.5t436.5 36.5t436.5 -36.5t305 -120.5t184 -222.5t58.5 -341.5q0 -163 -39 -283.5t-114.5 -204.5t-196 -135t-275 -74t-359.5 -23q-257 0 -436.5 36.5t-304.5 120t-183.5 222t-58.5 341.5zM403 700q0 -73 10 -131.5 t32.5 -103t52.5 -77.5t75.5 -56.5t95 -38t118.5 -23t138.5 -11.5t161.5 -3q106 0 183 4t153 15.5t127 32t96 53.5t71 80t40.5 111.5t14.5 147.5q0 73 -10 131.5t-33 103t-52.5 78t-75.5 56.5t-95.5 38t-118.5 23.5t-138.5 11.5t-161.5 3q-106 0 -183 -4t-152.5 -15.5 t-127 -32.5t-96.5 -54t-70.5 -80t-40 -111.5t-14.5 -147.5zM877 1528l262 377h331l-335 -377h-258z" />
<glyph unicode="&#xd4;" horiz-adv-x="2174" d="M104 700q0 203 58.5 341.5t183.5 222.5t304.5 120.5t436.5 36.5t436.5 -36.5t305 -120.5t184 -222.5t58.5 -341.5q0 -163 -39 -283.5t-114.5 -204.5t-196 -135t-275 -74t-359.5 -23q-257 0 -436.5 36.5t-304.5 120t-183.5 222t-58.5 341.5zM403 700q0 -73 10 -131.5 t32.5 -103t52.5 -77.5t75.5 -56.5t95 -38t118.5 -23t138.5 -11.5t161.5 -3q106 0 183 4t153 15.5t127 32t96 53.5t71 80t40.5 111.5t14.5 147.5q0 73 -10 131.5t-33 103t-52.5 78t-75.5 56.5t-95.5 38t-118.5 23.5t-138.5 11.5t-161.5 3q-106 0 -183 -4t-152.5 -15.5 t-127 -32.5t-96.5 -54t-70.5 -80t-40 -111.5t-14.5 -147.5zM604 1528l324 377h321l324 -377h-266l-220 201l-217 -201h-266z" />
<glyph unicode="&#xd5;" horiz-adv-x="2174" d="M104 700q0 203 58.5 341.5t183.5 222.5t304.5 120.5t436.5 36.5t436.5 -36.5t305 -120.5t184 -222.5t58.5 -341.5q0 -163 -39 -283.5t-114.5 -204.5t-196 -135t-275 -74t-359.5 -23q-257 0 -436.5 36.5t-304.5 120t-183.5 222t-58.5 341.5zM403 700q0 -73 10 -131.5 t32.5 -103t52.5 -77.5t75.5 -56.5t95 -38t118.5 -23t138.5 -11.5t161.5 -3q106 0 183 4t153 15.5t127 32t96 53.5t71 80t40.5 111.5t14.5 147.5q0 73 -10 131.5t-33 103t-52.5 78t-75.5 56.5t-95.5 38t-118.5 23.5t-138.5 11.5t-161.5 3q-106 0 -183 -4t-152.5 -15.5 t-127 -32.5t-96.5 -54t-70.5 -80t-40 -111.5t-14.5 -147.5zM541 1532q7 47 19.5 92.5t38 96.5t59.5 89t87 63t117 25q60 0 121.5 -22.5t103.5 -50t94 -50t97 -22.5q57 0 86.5 34t42.5 97h192q-9 -60 -28 -117t-54.5 -116.5t-96.5 -96t-140 -36.5q-61 0 -122.5 22.5t-104 50 t-94.5 50t-95 22.5q-55 0 -86 -33t-43 -98h-194z" />
<glyph unicode="&#xd6;" horiz-adv-x="2174" d="M104 700q0 203 58.5 341.5t183.5 222.5t304.5 120.5t436.5 36.5t436.5 -36.5t305 -120.5t184 -222.5t58.5 -341.5q0 -163 -39 -283.5t-114.5 -204.5t-196 -135t-275 -74t-359.5 -23q-257 0 -436.5 36.5t-304.5 120t-183.5 222t-58.5 341.5zM403 700q0 -73 10 -131.5 t32.5 -103t52.5 -77.5t75.5 -56.5t95 -38t118.5 -23t138.5 -11.5t161.5 -3q106 0 183 4t153 15.5t127 32t96 53.5t71 80t40.5 111.5t14.5 147.5q0 73 -10 131.5t-33 103t-52.5 78t-75.5 56.5t-95.5 38t-118.5 23.5t-138.5 11.5t-161.5 3q-106 0 -183 -4t-152.5 -15.5 t-127 -32.5t-96.5 -54t-70.5 -80t-40 -111.5t-14.5 -147.5zM680 1554v277h289v-277h-289zM1206 1554v277h289v-277h-289z" />
<glyph unicode="&#xd7;" horiz-adv-x="1431" d="M115 346l422 363l-422 364l151 176l449 -387l450 387l152 -176l-424 -364l424 -363l-152 -176l-450 385l-449 -385z" />
<glyph unicode="&#xd8;" horiz-adv-x="2187" d="M39 98l207 133q-135 166 -135 469q0 203 58.5 341.5t183.5 222.5t304.5 120.5t436.5 36.5q260 0 443.5 -37.5t301.5 -121.5l234 151l75 -108l-209 -136q138 -166 138 -469q0 -203 -58.5 -341.5t-183.5 -222t-304.5 -120t-436.5 -36.5q-262 0 -446 37.5t-302 121.5 l-231 -149zM410 700q0 -207 88 -305l1071 692q-146 58 -475 58q-106 0 -183 -4t-152.5 -15.5t-127 -32.5t-96.5 -54t-70.5 -80t-40 -111.5t-14.5 -147.5zM616 313q79 -33 193 -45t285 -12q92 0 161.5 3t138.5 11.5t118.5 23t95 38t75.5 56.5t52.5 77.5t32.5 103t10 131.5 q0 205 -90 306z" />
<glyph unicode="&#xd9;" horiz-adv-x="2041" d="M154 676v725h292v-725q0 -87 10.5 -147.5t37.5 -108t67.5 -76.5t107.5 -47.5t150.5 -25.5t202.5 -7t202 7t150 25.5t107 47t67 76.5t37 108.5t10 147.5v725h293v-725q0 -192 -46.5 -322.5t-151.5 -215t-267 -121.5t-401 -37q-318 0 -506 69t-275 220t-87 407zM631 1905 h332l262 -377h-258z" />
<glyph unicode="&#xda;" horiz-adv-x="2041" d="M154 676v725h292v-725q0 -87 10.5 -147.5t37.5 -108t67.5 -76.5t107.5 -47.5t150.5 -25.5t202.5 -7t202 7t150 25.5t107 47t67 76.5t37 108.5t10 147.5v725h293v-725q0 -192 -46.5 -322.5t-151.5 -215t-267 -121.5t-401 -37q-318 0 -506 69t-275 220t-87 407zM827 1528 l263 377h331l-336 -377h-258z" />
<glyph unicode="&#xdb;" horiz-adv-x="2041" d="M154 676v725h292v-725q0 -87 10.5 -147.5t37.5 -108t67.5 -76.5t107.5 -47.5t150.5 -25.5t202.5 -7t202 7t150 25.5t107 47t67 76.5t37 108.5t10 147.5v725h293v-725q0 -192 -46.5 -322.5t-151.5 -215t-267 -121.5t-401 -37q-318 0 -506 69t-275 220t-87 407zM537 1528 l323 377h322l323 -377h-266l-219 201l-217 -201h-266z" />
<glyph unicode="&#xdc;" horiz-adv-x="2041" d="M154 676v725h292v-725q0 -87 10.5 -147.5t37.5 -108t67.5 -76.5t107.5 -47.5t150.5 -25.5t202.5 -7t202 7t150 25.5t107 47t67 76.5t37 108.5t10 147.5v725h293v-725q0 -192 -46.5 -322.5t-151.5 -215t-267 -121.5t-401 -37q-318 0 -506 69t-275 220t-87 407zM614 1554 v277h289v-277h-289zM1141 1554v277h289v-277h-289z" />
<glyph unicode="&#xdd;" horiz-adv-x="2009" d="M8 1401h426l430 -518q12 -15 43.5 -50t55 -65.5t41.5 -62.5q19 33 40.5 61t58 68.5t42.5 48.5l430 518h426l-692 -756q-2 -2 -22 -23.5t-29.5 -32t-29 -33.5t-30 -39.5t-23.5 -38t-18.5 -41t-5.5 -36.5v-401h-293v401q0 21 -9.5 46t-21 44.5t-33.5 47.5t-33 40.5 t-35.5 38t-25.5 27.5zM805 1528l262 377h332l-336 -377h-258z" />
<glyph unicode="&#xde;" horiz-adv-x="2009" d="M174 0v1401h293v-230h922q141 0 250 -37.5t175.5 -103t100 -148.5t33.5 -180q0 -98 -33.5 -181.5t-100 -149.5t-175.5 -104t-250 -38h-922v-229h-293zM467 487h936q64 0 112.5 20t75 53t39 68.5t12.5 71.5t-13 71.5t-39.5 68.5t-75 53t-111.5 20h-936v-426z" />
<glyph unicode="&#xdf;" horiz-adv-x="3989" d="M115 0v262h1245q122 0 174.5 34t52.5 97q0 71 -67 108.5t-217 49.5l-678 53q-246 20 -375 114t-129 281q0 87 28.5 155.5t77.5 114.5t118 76t146.5 43t167.5 13h1139v-262h-1165q-215 0 -215 -131q0 -41 22.5 -67t85 -44t174.5 -27l646 -51q129 -11 224.5 -37t169 -73.5 t111 -123t37.5 -179.5q0 -189 -132 -297.5t-415 -108.5h-1226zM2130 0v262h1245q122 0 174.5 34t52.5 97q0 71 -67 108.5t-217 49.5l-678 53q-246 20 -375 114t-129 281q0 108 43 187.5t119 125.5t170 67.5t207 21.5h1138v-262h-1165q-215 0 -215 -131q0 -62 59 -93.5 t224 -44.5l645 -51q129 -11 224.5 -37t169 -73.5t111 -123t37.5 -179.5q0 -189 -131.5 -297.5t-414.5 -108.5h-1227z" />
<glyph unicode="&#xe0;" d="M43 0l573 1124q28 56 56 98t66 81t81.5 64t102.5 39.5t129 14.5q87 0 155.5 -21t119.5 -63.5t87 -92t72 -120.5l575 -1124h-315l-178 346h-1032l-179 -346h-313zM631 1905h332l262 -377h-258zM668 606h764l-236 459q-25 48 -58 72t-87 24t-87.5 -24t-58.5 -72z" />
<glyph unicode="&#xe1;" d="M43 0l573 1124q28 56 56 98t66 81t81.5 64t102.5 39.5t129 14.5q87 0 155.5 -21t119.5 -63.5t87 -92t72 -120.5l575 -1124h-315l-178 346h-1032l-179 -346h-313zM668 606h764l-236 459q-25 48 -58 72t-87 24t-87.5 -24t-58.5 -72zM836 1528l262 377h332l-336 -377h-258z " />
<glyph unicode="&#xe2;" d="M43 0l573 1124q28 56 56 98t66 81t81.5 64t102.5 39.5t129 14.5q87 0 155.5 -21t119.5 -63.5t87 -92t72 -120.5l575 -1124h-315l-178 346h-1032l-179 -346h-313zM567 1528l324 377h321l324 -377h-266l-219 201l-217 -201h-267zM668 606h764l-236 459q-25 48 -58 72 t-87 24t-87.5 -24t-58.5 -72z" />
<glyph unicode="&#xe3;" d="M43 0l573 1124q28 56 56 98t66 81t81.5 64t102.5 39.5t129 14.5q87 0 155.5 -21t119.5 -63.5t87 -92t72 -120.5l575 -1124h-315l-178 346h-1032l-179 -346h-313zM512 1532q7 47 19.5 92.5t38.5 96.5t60 89t87 63t117 25q60 0 121.5 -22.5t103 -50t93.5 -50t97 -22.5 q57 0 86.5 34t42.5 97h193q-7 -47 -19.5 -92t-38 -96.5t-59 -89.5t-86.5 -63t-117 -25q-61 0 -122.5 22.5t-103.5 50t-94 50t-95 22.5q-55 0 -86 -33t-43 -98h-195zM668 606h764l-236 459q-25 48 -58 72t-87 24t-87.5 -24t-58.5 -72z" />
<glyph unicode="&#xe4;" d="M43 0l573 1124q28 56 56 98t66 81t81.5 64t102.5 39.5t129 14.5q87 0 155.5 -21t119.5 -63.5t87 -92t72 -120.5l575 -1124h-315l-178 346h-1032l-179 -346h-313zM643 1554v277h289v-277h-289zM668 606h764l-236 459q-25 48 -58 72t-87 24t-87.5 -24t-58.5 -72zM1169 1554 v277h289v-277h-289z" />
<glyph unicode="&#xe5;" d="M43 0l573 1124q84 169 191 236q-109 91 -109 242q0 144 103 245t250 101t250.5 -101t103.5 -245q0 -148 -111 -244q101 -61 191 -234l575 -1124h-315l-178 346h-1032l-179 -346h-313zM668 606h764l-236 459q-25 48 -58 72t-87 24t-87.5 -24t-58.5 -72zM883 1595 q0 -70 49.5 -120t118.5 -50q71 0 120.5 49.5t49.5 120.5q0 69 -50 118.5t-120 49.5q-69 0 -118.5 -49.5t-49.5 -118.5z" />
<glyph unicode="&#xe6;" horiz-adv-x="3006" d="M12 0l666 1124q80 135 194 206t285 71h1725v-264h-1321q2 -5 5.5 -14t4.5 -13l94 -279h1171v-247h-1089l104 -320h1031v-264h-1256l-113 346h-981l-206 -346h-314zM684 598h748l-140 428q-40 125 -157 125q-116 0 -187 -117z" />
<glyph unicode="&#xe7;" horiz-adv-x="1998" d="M111 700q0 178 35 305t113.5 217.5t209 134.5t317.5 44h1108v-285h-968q-89 0 -156 -4t-121 -15t-91 -25.5t-64.5 -41t-43 -54.5t-25 -73t-12.5 -90.5t-3 -112.5q0 -89 5.5 -144.5t25 -106.5t53 -78.5t92.5 -48.5t140 -28t200 -7h968v-287h-682l-32 -88h18q156 0 237 -68 t81 -180q0 -59 -23.5 -104.5t-61.5 -73.5t-90.5 -46t-105.5 -25t-111 -7h-299l41 180h289q57 0 89 21t32 63q0 80 -121 80h-221l76 248h-224q-187 0 -317.5 44t-209 134t-113.5 217t-35 305z" />
<glyph unicode="&#xe8;" horiz-adv-x="2029" d="M111 700q0 177 35 304.5t114 218t209 134.5t317 44h1110v-279h-1110q-101 0 -171 -18.5t-112.5 -57.5t-63.5 -90.5t-29 -124.5h1462v-262h-1462q11 -98 45.5 -158.5t115.5 -95t215 -34.5h1110v-281h-1110q-187 0 -317 44t-209 134t-114 217.5t-35 304.5zM727 1905h332 l262 -377h-258z" />
<glyph unicode="&#xe9;" horiz-adv-x="2029" d="M111 700q0 177 35 304.5t114 218t209 134.5t317 44h1110v-279h-1110q-101 0 -171 -18.5t-112.5 -57.5t-63.5 -90.5t-29 -124.5h1462v-262h-1462q11 -98 45.5 -158.5t115.5 -95t215 -34.5h1110v-281h-1110q-187 0 -317 44t-209 134t-114 217.5t-35 304.5zM915 1528 l263 377h331l-335 -377h-259z" />
<glyph unicode="&#xea;" horiz-adv-x="2029" d="M111 700q0 177 35 304.5t114 218t209 134.5t317 44h1110v-279h-1110q-101 0 -171 -18.5t-112.5 -57.5t-63.5 -90.5t-29 -124.5h1462v-262h-1462q11 -98 45.5 -158.5t115.5 -95t215 -34.5h1110v-281h-1110q-187 0 -317 44t-209 134t-114 217.5t-35 304.5zM625 1528 l323 377h322l323 -377h-266l-219 201l-217 -201h-266z" />
<glyph unicode="&#xeb;" horiz-adv-x="2029" d="M111 700q0 177 35 304.5t114 218t209 134.5t317 44h1110v-279h-1110q-101 0 -171 -18.5t-112.5 -57.5t-63.5 -90.5t-29 -124.5h1462v-262h-1462q11 -98 45.5 -158.5t115.5 -95t215 -34.5h1110v-281h-1110q-187 0 -317 44t-209 134t-114 217.5t-35 304.5zM694 1554v277 h289v-277h-289zM1221 1554v277h288v-277h-288z" />
<glyph unicode="&#xec;" horiz-adv-x="641" d="M-82 1905h332l262 -377h-258zM174 0v1401h293v-1401h-293z" />
<glyph unicode="&#xed;" horiz-adv-x="641" d="M125 1528l262 377h332l-336 -377h-258zM174 0v1401h293v-1401h-293z" />
<glyph unicode="&#xee;" horiz-adv-x="641" d="M-164 1528l324 377h321l324 -377h-266l-220 201l-217 -201h-266zM174 0v1401h293v-1401h-293z" />
<glyph unicode="&#xef;" horiz-adv-x="641" d="M-88 1554v277h289v-277h-289zM174 0v1401h293v-1401h-293zM438 1554v277h289v-277h-289z" />
<glyph unicode="&#xf0;" horiz-adv-x="2234" d="M63 586v252h236v563h1151q187 0 317 -44t208.5 -134.5t113.5 -217.5t35 -305t-35 -305t-113.5 -217t-208.5 -134t-317 -44h-1151v586h-236zM592 287h858q99 0 167.5 18.5t109 49t62.5 85.5t29 113t7 147q0 73 -4.5 124.5t-18 102t-39.5 82.5t-67 58t-102 37.5t-144 11.5 h-858v-278h708v-252h-708v-299z" />
<glyph unicode="&#xf1;" horiz-adv-x="2193" d="M174 0v1401h207q58 0 105 -3t92.5 -14t81 -22t76 -35.5t70.5 -46.5t71 -64t72 -77t79 -97.5t86.5 -114t99.5 -136.5q256 -354 327 -424t183 -70h2v1104h293v-1401h-207q-67 0 -119 5t-104 21t-91.5 34.5t-89 58.5t-88.5 78t-98.5 108.5t-110.5 135.5t-132 171 q-239 314 -294 376q-76 87 -128 105q-30 11 -88 11h-2v-1104h-293zM590 1532q7 47 19.5 92.5t38 96.5t59.5 89t87 63t117 25q60 0 121.5 -22.5t103.5 -50t94 -50t97 -22.5q57 0 86.5 34t42.5 97h193q-7 -47 -19.5 -92t-38 -96.5t-59 -89.5t-86.5 -63t-117 -25 q-61 0 -122.5 22.5t-104 50t-94.5 50t-95 22.5q-55 0 -86 -33t-43 -98h-194z" />
<glyph unicode="&#xf2;" horiz-adv-x="2174" d="M104 700q0 203 58.5 341.5t183.5 222.5t304.5 120.5t436.5 36.5t436.5 -36.5t305 -120.5t184 -222.5t58.5 -341.5q0 -163 -39 -283.5t-114.5 -204.5t-196 -135t-275 -74t-359.5 -23q-257 0 -436.5 36.5t-304.5 120t-183.5 222t-58.5 341.5zM403 700q0 -73 10 -131.5 t32.5 -103t52.5 -77.5t75.5 -56.5t95 -38t118.5 -23t138.5 -11.5t161.5 -3q106 0 183 4t153 15.5t127 32t96 53.5t71 80t40.5 111.5t14.5 147.5q0 73 -10 131.5t-33 103t-52.5 78t-75.5 56.5t-95.5 38t-118.5 23.5t-138.5 11.5t-161.5 3q-106 0 -183 -4t-152.5 -15.5 t-127 -32.5t-96.5 -54t-70.5 -80t-40 -111.5t-14.5 -147.5zM672 1905h332l262 -377h-258z" />
<glyph unicode="&#xf3;" horiz-adv-x="2174" d="M104 700q0 203 58.5 341.5t183.5 222.5t304.5 120.5t436.5 36.5t436.5 -36.5t305 -120.5t184 -222.5t58.5 -341.5q0 -163 -39 -283.5t-114.5 -204.5t-196 -135t-275 -74t-359.5 -23q-257 0 -436.5 36.5t-304.5 120t-183.5 222t-58.5 341.5zM403 700q0 -73 10 -131.5 t32.5 -103t52.5 -77.5t75.5 -56.5t95 -38t118.5 -23t138.5 -11.5t161.5 -3q106 0 183 4t153 15.5t127 32t96 53.5t71 80t40.5 111.5t14.5 147.5q0 73 -10 131.5t-33 103t-52.5 78t-75.5 56.5t-95.5 38t-118.5 23.5t-138.5 11.5t-161.5 3q-106 0 -183 -4t-152.5 -15.5 t-127 -32.5t-96.5 -54t-70.5 -80t-40 -111.5t-14.5 -147.5zM877 1528l262 377h331l-335 -377h-258z" />
<glyph unicode="&#xf4;" horiz-adv-x="2174" d="M104 700q0 203 58.5 341.5t183.5 222.5t304.5 120.5t436.5 36.5t436.5 -36.5t305 -120.5t184 -222.5t58.5 -341.5q0 -163 -39 -283.5t-114.5 -204.5t-196 -135t-275 -74t-359.5 -23q-257 0 -436.5 36.5t-304.5 120t-183.5 222t-58.5 341.5zM403 700q0 -73 10 -131.5 t32.5 -103t52.5 -77.5t75.5 -56.5t95 -38t118.5 -23t138.5 -11.5t161.5 -3q106 0 183 4t153 15.5t127 32t96 53.5t71 80t40.5 111.5t14.5 147.5q0 73 -10 131.5t-33 103t-52.5 78t-75.5 56.5t-95.5 38t-118.5 23.5t-138.5 11.5t-161.5 3q-106 0 -183 -4t-152.5 -15.5 t-127 -32.5t-96.5 -54t-70.5 -80t-40 -111.5t-14.5 -147.5zM604 1528l324 377h321l324 -377h-266l-220 201l-217 -201h-266z" />
<glyph unicode="&#xf5;" horiz-adv-x="2174" d="M104 700q0 203 58.5 341.5t183.5 222.5t304.5 120.5t436.5 36.5t436.5 -36.5t305 -120.5t184 -222.5t58.5 -341.5q0 -163 -39 -283.5t-114.5 -204.5t-196 -135t-275 -74t-359.5 -23q-257 0 -436.5 36.5t-304.5 120t-183.5 222t-58.5 341.5zM403 700q0 -73 10 -131.5 t32.5 -103t52.5 -77.5t75.5 -56.5t95 -38t118.5 -23t138.5 -11.5t161.5 -3q106 0 183 4t153 15.5t127 32t96 53.5t71 80t40.5 111.5t14.5 147.5q0 73 -10 131.5t-33 103t-52.5 78t-75.5 56.5t-95.5 38t-118.5 23.5t-138.5 11.5t-161.5 3q-106 0 -183 -4t-152.5 -15.5 t-127 -32.5t-96.5 -54t-70.5 -80t-40 -111.5t-14.5 -147.5zM541 1532q7 47 19.5 92.5t38 96.5t59.5 89t87 63t117 25q60 0 121.5 -22.5t103.5 -50t94 -50t97 -22.5q57 0 86.5 34t42.5 97h192q-9 -60 -28 -117t-54.5 -116.5t-96.5 -96t-140 -36.5q-61 0 -122.5 22.5t-104 50 t-94.5 50t-95 22.5q-55 0 -86 -33t-43 -98h-194z" />
<glyph unicode="&#xf6;" horiz-adv-x="2174" d="M104 700q0 203 58.5 341.5t183.5 222.5t304.5 120.5t436.5 36.5t436.5 -36.5t305 -120.5t184 -222.5t58.5 -341.5q0 -163 -39 -283.5t-114.5 -204.5t-196 -135t-275 -74t-359.5 -23q-257 0 -436.5 36.5t-304.5 120t-183.5 222t-58.5 341.5zM403 700q0 -73 10 -131.5 t32.5 -103t52.5 -77.5t75.5 -56.5t95 -38t118.5 -23t138.5 -11.5t161.5 -3q106 0 183 4t153 15.5t127 32t96 53.5t71 80t40.5 111.5t14.5 147.5q0 73 -10 131.5t-33 103t-52.5 78t-75.5 56.5t-95.5 38t-118.5 23.5t-138.5 11.5t-161.5 3q-106 0 -183 -4t-152.5 -15.5 t-127 -32.5t-96.5 -54t-70.5 -80t-40 -111.5t-14.5 -147.5zM680 1554v277h289v-277h-289zM1206 1554v277h289v-277h-289z" />
<glyph unicode="&#xf7;" horiz-adv-x="1497" d="M115 586v248h1267v-248h-1267zM594 70v307h307v-307h-307zM594 1042v308h307v-308h-307z" />
<glyph unicode="&#xf8;" horiz-adv-x="2187" d="M39 98l207 133q-135 166 -135 469q0 203 58.5 341.5t183.5 222.5t304.5 120.5t436.5 36.5q260 0 443.5 -37.5t301.5 -121.5l234 151l75 -108l-209 -136q138 -166 138 -469q0 -203 -58.5 -341.5t-183.5 -222t-304.5 -120t-436.5 -36.5q-262 0 -446 37.5t-302 121.5 l-231 -149zM410 700q0 -207 88 -305l1071 692q-146 58 -475 58q-106 0 -183 -4t-152.5 -15.5t-127 -32.5t-96.5 -54t-70.5 -80t-40 -111.5t-14.5 -147.5zM616 313q79 -33 193 -45t285 -12q92 0 161.5 3t138.5 11.5t118.5 23t95 38t75.5 56.5t52.5 77.5t32.5 103t10 131.5 q0 205 -90 306z" />
<glyph unicode="&#xf9;" horiz-adv-x="2041" d="M154 676v725h292v-725q0 -87 10.5 -147.5t37.5 -108t67.5 -76.5t107.5 -47.5t150.5 -25.5t202.5 -7t202 7t150 25.5t107 47t67 76.5t37 108.5t10 147.5v725h293v-725q0 -192 -46.5 -322.5t-151.5 -215t-267 -121.5t-401 -37q-318 0 -506 69t-275 220t-87 407zM631 1905 h332l262 -377h-258z" />
<glyph unicode="&#xfa;" horiz-adv-x="2041" d="M154 676v725h292v-725q0 -87 10.5 -147.5t37.5 -108t67.5 -76.5t107.5 -47.5t150.5 -25.5t202.5 -7t202 7t150 25.5t107 47t67 76.5t37 108.5t10 147.5v725h293v-725q0 -192 -46.5 -322.5t-151.5 -215t-267 -121.5t-401 -37q-318 0 -506 69t-275 220t-87 407zM827 1528 l263 377h331l-336 -377h-258z" />
<glyph unicode="&#xfb;" horiz-adv-x="2041" d="M154 676v725h292v-725q0 -87 10.5 -147.5t37.5 -108t67.5 -76.5t107.5 -47.5t150.5 -25.5t202.5 -7t202 7t150 25.5t107 47t67 76.5t37 108.5t10 147.5v725h293v-725q0 -192 -46.5 -322.5t-151.5 -215t-267 -121.5t-401 -37q-318 0 -506 69t-275 220t-87 407zM537 1528 l323 377h322l323 -377h-266l-219 201l-217 -201h-266z" />
<glyph unicode="&#xfc;" horiz-adv-x="2041" d="M154 676v725h292v-725q0 -87 10.5 -147.5t37.5 -108t67.5 -76.5t107.5 -47.5t150.5 -25.5t202.5 -7t202 7t150 25.5t107 47t67 76.5t37 108.5t10 147.5v725h293v-725q0 -192 -46.5 -322.5t-151.5 -215t-267 -121.5t-401 -37q-318 0 -506 69t-275 220t-87 407zM614 1554 v277h289v-277h-289zM1141 1554v277h289v-277h-289z" />
<glyph unicode="&#xfd;" horiz-adv-x="2009" d="M8 1401h426l430 -518q12 -15 43.5 -50t55 -65.5t41.5 -62.5q19 33 40.5 61t58 68.5t42.5 48.5l430 518h426l-692 -756q-2 -2 -22 -23.5t-29.5 -32t-29 -33.5t-30 -39.5t-23.5 -38t-18.5 -41t-5.5 -36.5v-401h-293v401q0 21 -9.5 46t-21 44.5t-33.5 47.5t-33 40.5 t-35.5 38t-25.5 27.5zM805 1528l262 377h332l-336 -377h-258z" />
<glyph unicode="&#xfe;" horiz-adv-x="2009" d="M174 0v1401h293v-230h922q141 0 250 -37.5t175.5 -103t100 -148.5t33.5 -180q0 -98 -33.5 -181.5t-100 -149.5t-175.5 -104t-250 -38h-922v-229h-293zM467 487h936q64 0 112.5 20t75 53t39 68.5t12.5 71.5t-13 71.5t-39.5 68.5t-75 53t-111.5 20h-936v-426z" />
<glyph unicode="&#xff;" horiz-adv-x="2009" d="M8 1401h426l430 -518q12 -15 43.5 -50t55 -65.5t41.5 -62.5q19 33 40.5 61t58 68.5t42.5 48.5l430 518h426l-692 -756q-2 -2 -22 -23.5t-29.5 -32t-29 -33.5t-30 -39.5t-23.5 -38t-18.5 -41t-5.5 -36.5v-401h-293v401q0 21 -9.5 46t-21 44.5t-33.5 47.5t-33 40.5 t-35.5 38t-25.5 27.5zM610 1554v277h289v-277h-289zM1137 1554v277h288v-277h-288z" />
<glyph unicode="&#x152;" horiz-adv-x="3643" d="M104 700q0 203 58.5 341.5t183.5 222.5t304.5 120.5t436.5 36.5q327 0 527 -62t301 -204q102 133 300.5 189.5t524.5 56.5h778v-277h-778q-95 0 -162 -2.5t-138 -9.5t-119 -19.5t-94.5 -34.5t-76 -53t-52 -74t-32.5 -100h1397v-262h-1397q10 -57 32.5 -100.5t52 -74.5 t76 -52.5t94.5 -34.5t119.5 -20t137.5 -9t162 -2h778v-276h-778q-326 0 -524.5 56.5t-300.5 189.5q-100 -143 -300 -204.5t-528 -61.5q-257 0 -436.5 36.5t-304.5 120t-183.5 222t-58.5 341.5zM403 700q0 -73 10 -131.5t32.5 -103t52.5 -77.5t75.5 -56.5t95 -38t118.5 -23 t138.5 -11.5t161.5 -3q106 0 183 4t153 15.5t127 32t96 53.5t71 80t40.5 111.5t14.5 147.5q0 73 -10 131.5t-33 103t-52.5 78t-75.5 56.5t-95.5 38t-118.5 23.5t-138.5 11.5t-161.5 3q-106 0 -183 -4t-152.5 -15.5t-127 -32.5t-96.5 -54t-70.5 -80t-40 -111.5t-14.5 -147.5z " />
<glyph unicode="&#x153;" horiz-adv-x="3645" d="M106 700q0 163 39 283t114.5 202t196.5 132t274.5 72t359.5 22q328 0 527.5 -59.5t299.5 -198.5q100 134 299 191t526 57h779v-277h-779q-95 0 -162 -2.5t-138 -9.5t-119 -19.5t-94.5 -34.5t-76 -53t-52 -74t-32.5 -100h1397v-262h-1397q10 -57 32.5 -100.5t52 -74.5 t76 -52.5t94.5 -34.5t119.5 -20t137.5 -9t162 -2h779v-276h-779q-327 0 -526 56.5t-299 189.5q-100 -138 -300 -197t-527 -59q-206 0 -359.5 22t-274.5 71.5t-196.5 132t-114.5 202t-39 282.5zM406 700q0 -83 14.5 -147t40 -110t71 -78t96 -51.5t127 -30t152 -14t183.5 -3.5 t183.5 3.5t152 14t127 30t96 51.5t71 78t40 110t14.5 147q0 73 -10 131t-33 102t-52 76.5t-75.5 54.5t-95 36t-118.5 22t-138 10.5t-162 2.5t-162 -2.5t-138 -10.5t-118.5 -22t-95 -36t-75.5 -54.5t-52 -76.5t-33 -102t-10 -131z" />
<glyph unicode="&#x178;" horiz-adv-x="2009" d="M8 1401h426l430 -518q12 -15 43.5 -50t55 -65.5t41.5 -62.5q19 33 40.5 61t58 68.5t42.5 48.5l430 518h426l-692 -756q-2 -2 -22 -23.5t-29.5 -32t-29 -33.5t-30 -39.5t-23.5 -38t-18.5 -41t-5.5 -36.5v-401h-293v401q0 21 -9.5 46t-21 44.5t-33.5 47.5t-33 40.5 t-35.5 38t-25.5 27.5zM610 1554v277h289v-277h-289zM1137 1554v277h288v-277h-288z" />
<glyph unicode="&#x2c6;" horiz-adv-x="1187" d="M121 1528l323 377h322l324 -377h-267l-219 201l-217 -201h-266z" />
<glyph unicode="&#x2dc;" horiz-adv-x="1253" d="M123 1532q6 46 17 90t34.5 96.5t54.5 90.5t81.5 63.5t111.5 25.5q54 0 105 -16t89.5 -39t74.5 -46.5t76.5 -39.5t80.5 -16q55 0 83 38t42 105h176q-5 -38 -13.5 -74.5t-23.5 -80t-38.5 -79.5t-53.5 -66.5t-73.5 -48t-94.5 -17.5q-55 0 -106 16t-89.5 39t-74.5 46.5 t-77 39.5t-81 16q-97 0 -123 -143h-178z" />
<glyph unicode="&#x2000;" horiz-adv-x="974" />
<glyph unicode="&#x2001;" horiz-adv-x="1948" />
<glyph unicode="&#x2002;" horiz-adv-x="974" />
<glyph unicode="&#x2003;" horiz-adv-x="1948" />
<glyph unicode="&#x2004;" horiz-adv-x="649" />
<glyph unicode="&#x2005;" horiz-adv-x="487" />
<glyph unicode="&#x2006;" horiz-adv-x="324" />
<glyph unicode="&#x2007;" horiz-adv-x="324" />
<glyph unicode="&#x2008;" horiz-adv-x="243" />
<glyph unicode="&#x2009;" horiz-adv-x="389" />
<glyph unicode="&#x200a;" horiz-adv-x="108" />
<glyph unicode="&#x2010;" horiz-adv-x="1073" d="M154 582v256h766v-256h-766z" />
<glyph unicode="&#x2011;" horiz-adv-x="1073" d="M154 582v256h766v-256h-766z" />
<glyph unicode="&#x2012;" horiz-adv-x="1073" d="M154 582v256h766v-256h-766z" />
<glyph unicode="&#x2013;" horiz-adv-x="1701" d="M154 582v256h1394v-256h-1394z" />
<glyph unicode="&#x2014;" horiz-adv-x="2568" d="M154 582v256h2261v-256h-2261z" />
<glyph unicode="&#x2018;" horiz-adv-x="587" d="M154 807v594h280v-594h-280z" />
<glyph unicode="&#x2019;" horiz-adv-x="587" d="M154 807v594h280v-594h-280z" />
<glyph unicode="&#x201a;" horiz-adv-x="661" d="M66 -231l139 553h319l-219 -553h-239z" />
<glyph unicode="&#x201c;" horiz-adv-x="1062" d="M154 807v594h280v-594h-280zM629 807v594h280v-594h-280z" />
<glyph unicode="&#x201d;" horiz-adv-x="1062" d="M154 807v594h280v-594h-280zM629 807v594h280v-594h-280z" />
<glyph unicode="&#x201e;" horiz-adv-x="1150" d="M66 -231l139 553h319l-219 -553h-239zM555 -231l139 553h320l-219 -553h-240z" />
<glyph unicode="&#x2022;" horiz-adv-x="913" d="M162 700q0 122 87 208.5t208 86.5t208 -86.5t87 -208.5q0 -121 -86.5 -207.5t-208.5 -86.5t-208.5 86.5t-86.5 207.5z" />
<glyph unicode="&#x2026;" horiz-adv-x="2465" d="M154 0v322h319v-322h-319zM1073 0v322h320v-322h-320zM1993 0v322h319v-322h-319z" />
<glyph unicode="&#x202f;" horiz-adv-x="389" />
<glyph unicode="&#x2039;" horiz-adv-x="1114" d="M63 709l885 540v-297l-430 -243l430 -244v-297z" />
<glyph unicode="&#x203a;" horiz-adv-x="1114" d="M166 168v297l430 244l-430 243v297l885 -540z" />
<glyph unicode="&#x205f;" horiz-adv-x="487" />
<glyph unicode="&#x20ac;" horiz-adv-x="2076" d="M84 449l61 165h201q-2 27 -2 86q0 57 2 86h-262l61 166h220q45 227 198.5 338t448.5 111h944v-271h-944q-153 0 -234.5 -44.5t-113.5 -133.5h905l-62 -166h-872q-4 -31 -4 -86q0 -57 4 -86h825l-61 -165h-735q32 -89 113.5 -133t234.5 -44h944v-272h-944 q-296 0 -449 110.5t-198 338.5h-281z" />
<glyph unicode="&#x2122;" horiz-adv-x="2170" d="M125 1245v156h782v-156h-307v-524h-168v524h-307zM1044 721v680h193l291 -354l291 354h192v-680h-166v467l-264 -318h-115l-264 318v-467h-158z" />
<glyph unicode="&#x25fc;" horiz-adv-x="1402" d="M0 0v1403h1403v-1403h-1403z" />
</font>
</defs>
</svg>
